<?xml version="1.0" standalone="no"?>
<!DOCTYPE svg PUBLIC "-//W3C//DTD SVG 20010904//EN"
 "http://www.w3.org/TR/2001/REC-SVG-20010904/DTD/svg10.dtd">
<svg version="1.0" xmlns="http://www.w3.org/2000/svg"
 width="600.000000pt" height="600.000000pt" viewBox="0 0 600.000000 600.000000"
 preserveAspectRatio="xMidYMid meet">

<g transform="translate(0.000000,600.000000) scale(0.100000,-0.100000)"
fill="#000000" stroke="none">
<path d="M0 3561 l0 -2438 63 -8 c34 -4 139 -9 232 -11 174 -3 215 -8 215 -23
0 -5 -29 -30 -65 -56 -36 -27 -65 -54 -65 -62 0 -7 -7 -16 -16 -20 -8 -3 -20
-16 -25 -30 -12 -33 -36 -39 -182 -47 -70 -4 -135 -10 -143 -13 -12 -4 -14
-43 -14 -233 0 -212 1 -228 18 -225 9 2 54 6 98 8 72 4 89 2 147 -23 63 -26
72 -27 201 -24 l136 3 25 -27 c24 -25 30 -27 113 -26 143 1 396 16 412 24 10
6 2 10 -25 15 -62 10 -107 28 -119 48 -9 15 -6 23 17 43 15 13 36 24 45 24 9
1 33 9 52 20 30 16 32 19 17 26 -10 3 -60 4 -110 0 -51 -3 -105 -2 -122 3
l-30 9 37 16 c21 9 48 16 62 16 14 0 28 5 32 12 5 8 -13 9 -72 5 -206 -17
-291 -19 -334 -7 -25 6 -63 15 -85 19 -50 9 -61 15 -68 40 -9 37 58 53 248 60
l170 6 4 25 c2 18 -6 32 -30 53 -27 22 -34 35 -34 65 0 37 0 37 -41 35 -23 -1
-56 -11 -75 -22 -19 -12 -41 -21 -49 -21 -8 0 -42 -14 -75 -30 -55 -27 -68
-30 -160 -29 -132 1 -189 10 -193 30 -2 13 12 17 90 23 143 11 163 18 235 94
35 37 80 91 100 120 l36 52 154 0 153 0 10 -25 c19 -51 110 -75 193 -51 30 9
68 16 83 16 31 0 114 -29 114 -40 0 -3 -19 -19 -42 -34 -37 -24 -52 -28 -106
-27 -55 1 -65 -1 -86 -23 -13 -15 -46 -31 -79 -40 -62 -16 -97 -32 -97 -45 0
-4 14 -23 30 -42 17 -19 37 -42 45 -51 10 -13 30 -18 63 -18 40 0 52 -5 73
-29 15 -17 39 -33 55 -36 16 -4 61 -16 99 -28 39 -12 101 -26 140 -32 61 -9
70 -13 75 -34 4 -18 15 -27 39 -33 20 -6 39 -20 49 -37 15 -26 23 -30 107 -41
49 -6 119 -16 155 -21 84 -13 190 -14 315 -5 55 4 161 11 235 14 114 6 135 10
138 24 2 12 -7 18 -39 23 -60 10 -30 25 51 25 65 -1 65 -1 43 -19 -33 -27 -10
-43 47 -33 51 9 63 28 23 39 l-28 7 25 7 c49 14 85 9 114 -17 37 -33 26 -43
-55 -54 -35 -4 -86 -13 -113 -19 -26 -6 -140 -16 -253 -21 -249 -12 -285 -19
-262 -46 9 -11 9 -18 1 -26 -25 -25 -274 -54 -697 -83 -121 -8 -238 -17 -260
-19 -22 -3 -51 -5 -64 -5 -17 -1 -22 -4 -15 -11 6 -6 57 -6 149 1 77 6 320 11
540 12 l400 2 95 34 c82 29 114 35 235 42 374 22 595 75 578 138 -3 11 -11 26
-19 32 -8 6 -14 18 -14 25 0 11 20 14 88 14 95 0 188 20 228 48 14 9 33 33 44
53 l19 36 -28 33 c-25 31 -31 33 -71 27 -45 -6 -79 5 -93 29 -5 9 -27 14 -63
14 -30 0 -65 5 -76 11 -34 18 -226 37 -251 24 -16 -8 -34 -30 -43 -53 -1 -1
-9 1 -19 4 -14 6 -16 15 -12 50 6 61 23 77 67 71 90 -15 220 -38 265 -48 28
-6 94 -12 148 -14 54 -2 141 -8 195 -14 446 -46 518 -49 544 -23 6 6 14 28 17
49 l7 38 139 1 c77 0 251 4 386 9 241 8 249 8 415 -19 93 -15 231 -41 306 -57
173 -37 398 -54 581 -44 l137 7 0 2639 0 2639 -3000 0 -3000 0 0 -2439z m3131
2313 c9 -11 22 -14 43 -10 69 14 71 14 69 -24 -1 -27 -11 -44 -43 -73 -22 -21
-46 -37 -53 -35 -21 7 -65 104 -60 132 6 29 24 34 44 10z m-457 -328 c-3 -9
-10 -16 -15 -16 -6 0 -5 9 1 21 13 24 24 20 14 -5z m-24 -30 c0 -3 -4 -8 -10
-11 -5 -3 -10 -1 -10 4 0 6 5 11 10 11 6 0 10 -2 10 -4z m3171 -337 c6 -12 9
-32 6 -45 -6 -33 18 -52 44 -36 16 10 24 9 44 -5 34 -25 32 -57 -6 -84 -28
-20 -31 -26 -26 -62 10 -77 -6 -84 -73 -31 -35 27 -50 34 -70 29 -14 -4 -36
-7 -50 -8 l-25 -2 4 80 c3 83 21 135 46 135 8 0 18 -14 23 -32 8 -32 35 -58
48 -45 5 4 3 22 -3 40 -22 62 10 118 38 66z m-5758 -536 c-7 -2 -19 -2 -25 0
-7 3 -2 5 12 5 14 0 19 -2 13 -5z m5577 -14 c0 -40 18 -59 50 -52 27 5 30 3
30 -20 0 -74 -53 -113 -146 -105 -78 7 -156 76 -137 124 8 20 31 17 43 -6 16
-29 47 -25 65 9 8 16 23 32 34 36 11 3 22 12 25 20 8 23 36 18 36 -6z m-2393
-131 c35 -8 53 -8 79 1 32 12 41 9 138 -37 92 -44 104 -53 99 -71 -4 -15 6
-33 35 -65 23 -25 46 -62 52 -85 12 -47 23 -56 40 -36 8 10 11 32 8 60 -3 25
-2 45 3 45 14 0 135 -107 168 -149 36 -46 37 -48 10 -81 -118 -146 -270 -421
-330 -597 -55 -162 -68 -221 -76 -345 l-6 -108 -56 0 c-67 0 -168 -23 -219
-49 -45 -23 -123 -104 -143 -149 -7 -18 -21 -34 -30 -37 -14 -5 -204 30 -221
41 -4 3 -8 24 -8 47 0 57 -26 153 -53 196 -57 94 -115 137 -362 276 -77 43
-187 105 -245 137 -128 72 -162 106 -185 184 -26 87 -29 143 -11 212 36 141
122 274 245 379 200 171 335 210 546 159 61 -15 126 -27 145 -28 41 0 165 42
224 76 64 37 87 41 153 24z m828 -658 c3 -5 1 -10 -4 -10 -6 0 -11 5 -11 10 0
6 2 10 4 10 3 0 8 -4 11 -10z m-1204 -1109 c127 -26 126 -26 134 -74 14 -79
183 -390 341 -627 242 -362 271 -404 299 -430 l26 -24 62 16 c48 13 73 15 112
7 75 -14 80 -29 10 -30 -74 -1 -110 -11 -110 -29 0 -11 14 -13 59 -11 57 2
116 -13 116 -30 0 -5 -30 -9 -67 -9 -38 0 -78 -3 -90 -6 -40 -11 -25 -24 27
-24 119 0 178 -67 134 -151 -29 -57 -102 -71 -229 -44 -133 28 -196 30 -273 6
-101 -30 -156 -28 -192 8 -37 36 -46 72 -31 123 14 47 58 70 125 67 82 -5 84
11 14 140 -28 53 -64 121 -81 151 -70 131 -176 318 -199 351 -13 20 -18 22
-29 11 -11 -11 -5 -30 38 -115 l52 -102 11 -184 c17 -263 -1 -401 -68 -507
-28 -45 -92 -90 -140 -100 -40 -8 -41 4 -6 80 14 32 24 60 20 63 -22 22 -72
-62 -121 -204 -19 -52 -37 -98 -41 -101 -4 -4 -4 2 0 13 17 46 29 342 19 460
-10 125 -5 157 28 178 22 14 69 -11 90 -48 16 -27 29 -94 45 -229 4 -37 8 -46
17 -37 8 8 11 47 10 117 -3 117 -26 189 -71 224 -29 24 -84 26 -102 5 -15 -18
-40 -20 -40 -2 0 18 -56 129 -79 155 -50 57 -155 69 -217 24 -75 -55 -124
-121 -156 -208 -40 -113 -49 -170 -55 -334 l-6 -165 -40 -41 c-46 -48 -105
-64 -144 -38 -41 26 -78 18 -117 -27 -19 -23 -41 -60 -49 -83 -17 -51 -50 -58
-55 -11 -3 28 13 62 120 270 15 29 20 54 18 100 -8 157 15 326 64 464 32 90
164 358 226 458 48 77 123 160 308 338 46 44 106 110 135 148 28 37 52 67 53
67 1 0 44 -9 95 -19z m2440 -438 c1 -21 3 -58 4 -83 2 -25 3 -202 3 -395 0
-192 1 -362 1 -377 0 -18 -5 -28 -14 -28 -8 0 -15 -4 -15 -10 0 -5 -12 -10
-26 -10 -14 0 -40 -6 -57 -14 -71 -30 -89 -36 -108 -36 -11 0 -18 -4 -15 -8 4
-7 -102 -35 -114 -29 -3 1 -18 -8 -35 -19 -16 -12 -41 -24 -55 -27 -14 -3 -43
-11 -65 -17 -22 -6 -52 -14 -67 -17 -16 -3 -28 -8 -28 -12 0 -13 -52 -4 -62
10 -8 11 -9 11 -4 -3 3 -10 0 -20 -6 -24 -7 -5 -9 11 -5 52 12 108 12 122 4
117 -4 -3 -5 71 -2 164 3 92 7 275 8 405 2 203 4 240 18 253 20 20 70 33 269
70 41 8 122 24 180 36 58 12 121 22 142 23 20 0 34 4 31 9 -2 4 1 7 6 7 6 0
12 -17 12 -37z m-946 -117 c6 -6 10 -29 9 -51 -7 -129 -16 -410 -19 -605 -2
-124 -8 -241 -13 -260 -6 -19 -11 -28 -12 -20 -2 8 -5 26 -7 40 -8 43 -5 94 6
98 6 2 11 29 11 60 0 41 -3 53 -10 42 -5 -8 -10 -26 -10 -40 0 -18 -3 -21 -9
-11 -5 7 -14 11 -19 7 -8 -5 -11 109 -10 381 0 275 4 390 12 395 10 7 48 -13
71 -36z m189 -13 c18 -5 19 -19 12 -476 -6 -364 -11 -473 -21 -483 -7 -7 -15
-10 -19 -7 -3 4 -6 -1 -6 -10 0 -11 -8 -17 -25 -17 -18 0 -23 4 -19 15 4 8 1
15 -5 15 -6 0 -11 18 -11 43 0 27 -3 37 -9 28 -13 -20 -14 549 -2 583 6 15 12
94 13 176 l3 150 35 -6 c19 -3 44 -8 54 -11z m-2504 -303 c0 -6 -9 -36 -20
-68 -38 -109 -66 -243 -79 -386 -6 -54 -12 -101 -15 -104 -3 -3 -39 5 -80 16
-88 26 -149 27 -247 7 -160 -34 -253 -18 -280 47 -13 32 -5 91 16 112 19 18
19 26 0 26 -19 0 -65 -50 -65 -72 0 -26 -19 -32 -40 -13 -65 59 19 164 145
180 54 6 69 17 40 28 -8 4 -42 2 -76 -4 -34 -5 -64 -8 -67 -5 -10 11 21 35 66
53 59 22 297 25 379 4 l53 -13 62 45 c35 25 92 70 128 100 66 57 80 65 80 47z
m578 -80 c44 -27 48 -43 19 -82 -28 -37 -72 -171 -63 -193 11 -30 23 -14 45
58 12 39 30 87 40 105 22 42 34 31 56 -54 38 -145 43 -440 9 -643 -17 -109
-17 -121 1 -121 19 0 20 2 -15 -71 -32 -68 -94 -139 -121 -139 -29 0 -49 40
-49 97 0 29 -3 53 -7 53 -5 0 -20 -21 -35 -45 -45 -74 -88 -55 -88 39 0 32 -4
46 -13 46 -27 0 -77 155 -98 299 -29 208 22 473 115 586 31 38 39 29 29 -31
-4 -27 -7 -71 -5 -97 5 -72 26 -54 34 29 16 167 60 216 146 164z m1684 -522
c-3 -22 0 -35 14 -45 16 -12 16 -13 -9 -13 -24 0 -26 3 -21 33 7 39 12 57 17
57 2 0 1 -14 -1 -32z m-2402 -464 c0 -6 -7 -17 -16 -24 -12 -11 -18 -10 -31 3
-15 14 -15 18 2 43 17 26 18 27 31 9 8 -10 14 -24 14 -31z m-465 26 c3 -5 -3
-10 -14 -10 -11 0 -23 5 -26 10 -3 6 3 10 14 10 11 0 23 -4 26 -10z m889 -26
c12 -30 6 -50 -22 -77 -20 -19 -31 -24 -42 -17 -8 5 -41 10 -73 10 -54 0 -58
1 -55 22 2 17 14 25 53 36 28 8 61 20 75 28 33 18 57 17 64 -2z m848 -118 c-2
-10 7 -20 23 -26 39 -15 29 -43 -20 -56 -100 -29 -153 -36 -200 -28 -48 9 -75
34 -37 34 44 0 132 54 132 81 0 5 15 16 33 24 27 11 35 11 52 0 11 -7 19 -20
17 -29z"/>
<path d="M2915 4276 c-32 -7 -51 -17 -53 -28 -3 -14 9 -16 108 -12 61 2 115 4
121 4 6 0 9 8 7 17 -6 32 -92 41 -183 19z"/>
<path d="M3273 4183 c-24 -9 -13 -21 41 -46 33 -16 70 -45 97 -76 44 -51 69
-64 69 -36 0 49 -84 137 -147 154 -41 12 -42 12 -60 4z"/>
<path d="M2458 4062 c-7 -2 -32 -12 -55 -23 -115 -54 -35 -157 139 -181 83
-12 134 -2 189 35 64 43 43 94 -57 139 -45 20 -181 39 -216 30z"/>
<path d="M2092 3874 c-30 -21 -28 -44 3 -44 22 0 25 -4 25 -37 0 -57 34 -173
63 -219 58 -93 200 -171 359 -198 79 -14 115 -15 200 -6 228 22 311 67 348
188 24 81 46 100 91 78 27 -13 31 -13 36 1 8 19 -30 53 -59 53 -46 0 -86 -50
-103 -128 -20 -96 -150 -146 -380 -146 -134 -1 -144 1 -225 32 -105 40 -182
90 -215 140 -42 63 -65 140 -65 214 0 56 -3 69 -19 78 -26 13 -33 13 -59 -6z"/>
<path d="M4293 1855 c0 -22 2 -30 4 -17 2 12 2 30 0 40 -3 9 -5 -1 -4 -23z"/>
<path d="M1420 1536 c0 -2 7 -7 16 -10 8 -3 12 -2 9 4 -6 10 -25 14 -25 6z"/>
<path d="M27 273 l-27 -4 0 -135 0 -134 335 0 c186 0 344 4 357 9 28 12 172
56 211 65 15 4 27 13 27 21 0 16 -51 21 -150 16 -174 -9 -631 34 -678 63 -21
13 -13 35 16 42 32 8 82 41 82 55 0 9 -117 10 -173 2z"/>
</g>
</svg>
